<svg xmlns="http://www.w3.org/2000/svg" width="311" height="78.1"><style>@media (prefers-color-scheme:dark){g{stroke:#fff}}</style><g style="stroke:#000;stroke-linecap:round;stroke-linejoin:round;stroke-width:1.25"><path fill="none" stroke-width="2.25" d="M75.3 50.5c-11.2 8-19.3 12.7-32.4 19.8-6.1-6.2-9.1-8.9-16.6-13.9 12.7-6.5 20.6-10.1 34.2-18 5.9 4.3 10 6.4 15 11.3m-49.2 6.7.3 6.9m16.2 7.3c.3 1.2.6 4.9.7 6.1m32.1-26.9.7 7m-49.7 6.5c6.7 6.5 10.7 6.5 16.5 13.7m.4-.2c2.2-1.2 5.4-2.8 8.1-4.2 4.3-2.1 6.7-4.2 11.1-6.2 6.1-2.8 7.7-6.4 13.5-9.7M2 47.5c7.8-3.8 14.3.7 18.2 6 0-8 .5-12 .5-20 0-13.2.4-18.7-9.2-18.7-10 0-9.7 3.4-9.7 14.4.1 10.3.2 8 .2 18.3m5.5-24.9c.1 5.6.5 17.9.5 23.5m4.1-25.6v26.4m3.7-19.8c.1 6.4.3 18.2.3 21.8M5.7 15.5c14.5-6.7 21.8-9 36.2-13.7.9-.3 3.2-.9 4.4-.6M20.2 53.5c10.2-9.2 21.3-10.1 32.7-17.8M46.3 1.2C53 2.3 53 4.1 53 15.1v20.6m-37.9 13c-8.5 3.5-14 8.9-14 11.9 0 4.3 3.9 5.5 8.1 5.5 5.2 0 7.7-3.3 12.9-3.3 1.3 0 3.1.1 4.4.5"/><path stroke-width="1.389" d="M37.5 59.6c1.2 1.7 3.1 2.7 4.6 4.4l.8-.4s3.8-2.2 4.5-2.9l.3-2.3-10.1-.8-.1 2zm11-5c1.2 1.7 2.7 2.3 4.2 3.9l2.5-1.6s.9-.5 1.6-1.2l.2-2.3-8.4-.9-.1 2.1zm9-5.7c1.2 1.7 2.8 2.8 4.5 4 0 0 1.6-1.1 2.3-1.7.7-.6 1.4-.8 2.1-1.5l.2-2.3-9.1-.5v2z"/><path fill="#3e66b0" d="M43.9 54c1.1 1.7 2.5 2.3 3.8 3.9-2.1 1.4-3.1 2.3-5.5 3.4-.1-.1-4.3-4.1-4.6-4.2l5.9-3.5.4.4z"/><path fill="#fff200" d="M52.8 49.2c1.8 1 3.5 2.3 4.2 3.8-.6 1-2.4 2-4.2 3-.8-.9-1.5-1.2-2.5-2-.7-.6-1.7-1-1.7-1.9 0-.3.2-.4.2-.7 1-.8 2.8-1.6 4-2.2z"/><path fill="#ed1c24" d="M57.6 46.4c1.6-.8 3.3-2.2 4.7-3.1 1.6 1.2 2.7 2.4 4.4 3.6-1.1 1.4-2.8 2.2-4.6 3.5-1.7-1.5-3.1-2.4-4.5-4z"/><path fill="none" stroke-width="3.7" d="M119.3 44.6c-1.1-1.8-3.6-3.9-11-3.9-5.8 0-10.2 5.2-10.2 11 0 5.7 4.4 8.6 10.1 8.6 17.5 0 19.4-23 19.4-40.6 0-13.3-4.8-11.8-4.8.5v11c0 13.1 1.7 29 12.1 29 8.2 0 12.9-4.4 12.9-12.7 0-10.5-10-10.2-10 .3 0 7.8 5.3 12.4 13.1 12.4 7.5 0 13.5-4.3 13.5-11.9 0-4.3-3.1-7-7-8.6m18.3-.3c-6.6 2.2-11.3 7-11.3 14 0 5.5 4.2 7 9.7 7 2.2 0 3.2-.5 5.4-1.1m-3.8-19.9c-6.6 2.2-11.3 7-11.3 14 0 5.5 4.2 7 9.7 7 2.2 0 3.2-.5 5.4-1.1m-20-7.5c5 0 7.9-.1 12.9-.5m14.8-9.8c-4.9 1.2-7.5 5.3-7.5 10.2 0 4.8 4.3 8.6 9.2 8.6 5.8 0 10.2-5.1 10.2-10.9 0-5.7-2.1-7.9-7-7.7-2.2.3-2.6 2.6-1.1 4 1.5 1.2 3.2 1.6 5.4 1.6 4.6 0 6.2-4.9 10.8-4.9 3.8 0 5.9 4.2 5.9 8 0 3.4-.3 5.4-.3 8.8 0-2.8.2-4.6.2-7.4 0-4.6 3-8.8 7.6-8.8 2.8 0 5.4 2.4 5.4 5.3v9.6c0 1.5 1.6 1.9 2.7 1.9 5.7 0 7.4-5.7 9.7-10.8 4-8.9 4.9-15 4.9-24.8 0-17.1-7.1-15.3-7.1 1.1 0 7.8.1 12 2.3 19.4 1.8 6.1 1.2 15.3 7.5 15.3 2.8 0 5.6-3.7 6-7 .8-6.3.6-6.6.6-12.4.3 5.4.3 3.8.3 6.8 0 15.3 4.6 13.1 5.9 11.2 4.7-6.5 1-17 9.1-17 3.2 0 6.1 2.8 6.1 6v12.5c-.2-7.8.2-17.3 7.3-17.3 7.9 0 3 17 10.9 17 6.6 0 11.4-5.5 11.4-12.2 0-8.2-8.4-9.2-8.4 1.3 0 5.4 7.2 14.9 13.9 8.8m-56.7-28.9-.1.9"/></g></svg>